SplineFontDB: 3.0
FontName: OlChiki-Regular
FullName: OlChiki
FamilyName: OlChiki
Weight: Book
Copyright: (c) Centre for Internet and Society, 2014.
Version: 1.009;PS 001.009;hotconv 1.0.70;makeotf.lib2.5.58329 DEVELOPMENT
ItalicAngle: 0
UnderlinePosition: -100
UnderlineWidth: 50
Ascent: 750
Descent: 250
InvalidEm: 0
sfntRevision: 0x0001024d
LayerCount: 2
Layer: 0 1 "Back" 1
Layer: 1 1 "Fore" 0
XUID: [1021 316 609215907 25479]
StyleMap: 0x0000
FSType: 8
OS2Version: 3
OS2_WeightWidthSlopeOnly: 0
OS2_UseTypoMetrics: 0
CreationTime: 1441088340
ModificationTime: 1441095310
PfmFamily: 81
TTFWeight: 400
TTFWidth: 5
LineGap: 0
VLineGap: 0
Panose: 0 0 5 0 0 0 0 0 0 0
OS2TypoAscent: 750
OS2TypoAOffset: 0
OS2TypoDescent: -250
OS2TypoDOffset: 0
OS2TypoLinegap: 200
OS2WinAscent: 950
OS2WinAOffset: 0
OS2WinDescent: 250
OS2WinDOffset: 0
HheadAscent: 950
HheadAOffset: 0
HheadDescent: -250
HheadDOffset: 0
OS2SubXSize: 650
OS2SubYSize: 600
OS2SubXOff: 0
OS2SubYOff: 75
OS2SupXSize: 650
OS2SupYSize: 600
OS2SupXOff: 0
OS2SupYOff: 350
OS2StrikeYSize: 50
OS2StrikeYPos: 300
OS2CapHeight: 750
OS2XHeight: 500
OS2Vendor: 'UKWN'
OS2CodePages: 00000001.00000000
OS2UnicodeRanges: 00000000.00000000.00000000.00000000
Lookup: 1 0 0 "" { } []
MarkAttachClasses: 1
DEI: 91125
ShortTable: cvt  1
  0
EndShort
ShortTable: maxp 16
  1
  0
  50
  57
  3
  0
  0
  0
  0
  0
  1
  0
  0
  0
  0
  0
EndShort
LangName: 1033 "+AKkA Centre for Internet and Society, 2014." "" "" "1.009;UKWN;OlChiki-Regular" "" "Version 1.009;PS 001.009;hotconv 1.0.70;makeotf.lib2.5.58329 DEVELOPMENT" "" "" "Pooja Saxena" "Pooja Saxena" "" "http://www.poojasaxena.in/" "http://www.poojasaxena.in/" "This Font Software is licensed under the SIL Open Font License Version 1.1. This license is available with a FAQ at http://scripts.sil.org/OFL" "http://scripts.sil.org/OFL"
GaspTable: 1 65535 6 1
Encoding: UnicodeBmp
Compacted: 1
UnicodeInterp: none
NameList: AGL For New Fonts
DisplaySize: -48
AntiAlias: 1
FitToEm: 0
WinInfo: 0 31 11

StartChar: .notdef
Encoding: 65536 -1 0
Width: 603
Flags: W
LayerCount: 2
Fore
SplineSet
513 0 m 1,0,-1
 90 0 l 1,1,-1
 90 636 l 1,2,-1
 513 636 l 1,3,-1
 513 0 l 1,0,-1
449 61 m 1,4,-1
 449 574 l 1,5,-1
 155 574 l 1,6,-1
 155 61 l 1,7,-1
 449 61 l 1,4,-1
EndSplineSet
Validated: 1
EndChar

StartChar: la-olchiki
Encoding: 7258 7258 2
Width: 608
Flags: W
LayerCount: 2
Fore
SplineSet
430 609.5 m 128,-1,1
 491 569 491 569 527 493 c 128,-1,2
 563 417 563 417 563 316 c 256,3,4
 563 215 563 215 526.5 140 c 128,-1,5
 490 65 490 65 427 25 c 128,-1,6
 364 -15 364 -15 288 -15 c 0,7,8
 207 -15 207 -15 148 24 c 128,-1,9
 89 63 89 63 55 141 c 1,10,-1
 456 466 l 1,11,12
 431 519 431 519 390 547.5 c 128,-1,13
 349 576 349 576 298 576 c 0,14,15
 230 576 230 576 183 536 c 1,16,-1
 251 395 l 1,17,-1
 227 338 l 1,18,-1
 37 338 l 1,19,-1
 37 407 l 1,20,-1
 164 407 l 1,21,-1
 95 551 l 1,22,23
 133 598 133 598 185.5 624 c 128,-1,24
 238 650 238 650 298 650 c 0,25,0
 369 650 369 650 430 609.5 c 128,-1,1
391 90 m 128,-1,27
 436 121 436 121 461 179 c 128,-1,28
 486 237 486 237 486 316 c 0,29,30
 486 357 486 357 480 391 c 1,31,-1
 151 122 l 1,32,33
 198 59 198 59 288 59 c 0,34,26
 346 59 346 59 391 90 c 128,-1,27
EndSplineSet
Validated: 513
EndChar

StartChar: at-olchiki
Encoding: 7259 7259 3
Width: 640
Flags: W
LayerCount: 2
Fore
SplineSet
81.5 493.5 m 128,-1,1
 118 569 118 569 180.5 609.5 c 128,-1,2
 243 650 243 650 320 650 c 0,3,4
 396 650 396 650 459 609.5 c 128,-1,5
 522 569 522 569 558.5 493.5 c 128,-1,6
 595 418 595 418 595 316 c 0,7,8
 595 215 595 215 558.5 140 c 128,-1,9
 522 65 522 65 459 25 c 128,-1,10
 396 -15 396 -15 320 -15 c 0,11,12
 243 -15 243 -15 180.5 25 c 128,-1,13
 118 65 118 65 81.5 140 c 128,-1,14
 45 215 45 215 45 316 c 0,15,0
 45 418 45 418 81.5 493.5 c 128,-1,1
493 454.5 m 128,-1,17
 468 513 468 513 423 544.5 c 128,-1,18
 378 576 378 576 320 576 c 256,19,20
 262 576 262 576 217 544.5 c 128,-1,21
 172 513 172 513 147 454.5 c 128,-1,22
 122 396 122 396 122 316 c 0,23,24
 122 237 122 237 147 179 c 128,-1,25
 172 121 172 121 217 90 c 128,-1,26
 262 59 262 59 320 59 c 256,27,28
 378 59 378 59 423 90 c 128,-1,29
 468 121 468 121 493 179 c 128,-1,30
 518 237 518 237 518 316 c 0,31,16
 518 396 518 396 493 454.5 c 128,-1,17
EndSplineSet
Validated: 513
EndChar

StartChar: ag-olchiki
Encoding: 7260 7260 4
Width: 657
Flags: W
LayerCount: 2
Fore
SplineSet
594 258 m 1,1,-1
 612 244 l 1,2,3
 599 163 599 163 559.5 104.5 c 128,-1,4
 520 46 520 46 460.5 15.5 c 128,-1,5
 401 -15 401 -15 330 -15 c 0,6,7
 249 -15 249 -15 184 25 c 128,-1,8
 119 65 119 65 82 140 c 128,-1,9
 45 215 45 215 45 316 c 0,10,11
 45 418 45 418 84.5 493.5 c 128,-1,12
 124 569 124 569 191 609.5 c 128,-1,13
 258 650 258 650 340 650 c 0,14,15
 401 650 401 650 455.5 626.5 c 128,-1,16
 510 603 510 603 550 559 c 1,17,-1
 495 509 l 1,18,19
 466 541 466 541 426 558.5 c 128,-1,20
 386 576 386 576 340 576 c 0,21,22
 276 576 276 576 227 544.5 c 128,-1,23
 178 513 178 513 150 454 c 128,-1,24
 122 395 122 395 122 316 c 0,25,26
 122 196 122 196 178 127.5 c 128,-1,27
 234 59 234 59 330 59 c 0,28,29
 392 59 392 59 440.5 88 c 128,-1,30
 489 117 489 117 517 171 c 1,31,32
 493 167 493 167 472.5 165 c 128,-1,33
 452 163 452 163 429 163 c 0,34,35
 372 163 372 163 336 184.5 c 128,-1,36
 300 206 300 206 284 239 c 128,-1,37
 268 272 268 272 267 307 c 0,38,39
 268 342 268 342 284 375 c 128,-1,40
 300 408 300 408 336 429.5 c 128,-1,41
 372 451 372 451 429 451 c 0,42,43
 459 451 459 451 492 447 c 128,-1,44
 525 443 525 443 560 437 c 2,45,-1
 602 431 l 1,46,-1
 585 358 l 1,47,48
 485 375 485 375 443 375 c 0,49,50
 396 375 396 375 372 357.5 c 128,-1,51
 348 340 348 340 348 307 c 256,52,53
 348 274 348 274 372 256.5 c 128,-1,54
 396 239 396 239 443 239 c 0,55,0
 494 239 494 239 594 258 c 1,1,-1
EndSplineSet
Validated: 513
EndChar

StartChar: ang-olchiki
Encoding: 7261 7261 5
Width: 652
Flags: W
LayerCount: 2
Fore
SplineSet
455 16.5 m 128,-1,1
 394 -15 394 -15 322 -15 c 0,2,3
 223 -15 223 -15 146.5 44 c 128,-1,4
 70 103 70 103 41 207 c 1,5,-1
 114 233 l 1,6,7
 133 151 133 151 188.5 105 c 128,-1,8
 244 59 244 59 322 59 c 256,9,10
 400 59 400 59 455 105 c 1,11,-1
 248 295 l 1,12,-1
 248 342 l 1,13,-1
 454 530 l 1,14,15
 399 576 399 576 321 576 c 256,16,17
 243 576 243 576 187.5 530 c 128,-1,18
 132 484 132 484 113 402 c 1,19,-1
 40 428 l 1,20,21
 69 532 69 532 145.5 591 c 128,-1,22
 222 650 222 650 321 650 c 0,23,24
 393 650 393 650 454 618.5 c 128,-1,25
 515 587 515 587 556 528 c 1,26,-1
 328 318 l 1,27,-1
 557 107 l 1,28,0
 516 48 516 48 455 16.5 c 128,-1,1
607 281 m 1,29,-1
 425 281 l 1,30,-1
 425 353 l 1,31,-1
 607 353 l 1,32,-1
 607 281 l 1,29,-1
EndSplineSet
Validated: 513
EndChar

StartChar: al-olchiki
Encoding: 7262 7262 6
Width: 541
Flags: W
LayerCount: 2
Fore
SplineSet
383 598 m 128,-1,1
 442 563 442 563 474 506 c 128,-1,2
 506 449 506 449 506 378 c 256,3,4
 506 307 506 307 474 250 c 128,-1,5
 442 193 442 193 383 158 c 128,-1,6
 324 123 324 123 244 117 c 1,7,-1
 139 207 l 1,8,-1
 139 0 l 1,9,-1
 67 0 l 1,10,-1
 67 636 l 1,11,-1
 139 636 l 1,12,-1
 139 549 l 1,13,-1
 244 639 l 1,14,0
 324 633 324 633 383 598 c 128,-1,1
388 254.5 m 128,-1,16
 433 306 433 306 433 378 c 256,17,18
 433 450 433 450 388 501.5 c 128,-1,19
 343 553 343 553 258 562 c 1,20,-1
 139 458 l 1,21,-1
 139 298 l 1,22,-1
 258 194 l 1,23,15
 343 203 343 203 388 254.5 c 128,-1,16
EndSplineSet
Validated: 513
EndChar

StartChar: laa-olchiki
Encoding: 7263 7263 7
Width: 740
Flags: W
LayerCount: 2
Fore
SplineSet
661.5 511.5 m 128,-1,1
 695 423 695 423 695 312 c 0,2,3
 695 204 695 204 669.5 121.5 c 128,-1,4
 644 39 644 39 603 -15 c 1,5,-1
 538 28 l 1,6,7
 575 75 575 75 596.5 150.5 c 128,-1,8
 618 226 618 226 618 312 c 0,9,10
 618 379 618 379 604.5 436 c 128,-1,11
 591 493 591 493 566 531 c 1,12,-1
 508 475 l 1,13,14
 533 405 533 405 533 316 c 0,15,16
 533 215 533 215 500.5 140 c 128,-1,17
 468 65 468 65 410 25 c 128,-1,18
 352 -15 352 -15 278 -15 c 0,19,20
 199 -15 199 -15 144.5 23 c 128,-1,21
 90 61 90 61 55 141 c 1,22,-1
 418 490 l 1,23,24
 395 531 395 531 361.5 553.5 c 128,-1,25
 328 576 328 576 288 576 c 0,26,27
 255 576 255 576 231.5 566.5 c 128,-1,28
 208 557 208 557 183 536 c 1,29,-1
 251 395 l 1,30,-1
 227 338 l 1,31,-1
 37 338 l 1,32,-1
 37 407 l 1,33,-1
 164 407 l 1,34,-1
 95 551 l 1,35,36
 174 650 174 650 288 650 c 0,37,38
 345 650 345 650 393 622.5 c 128,-1,39
 441 595 441 595 474 544 c 1,40,-1
 571 637 l 1,41,0
 628 600 628 600 661.5 511.5 c 128,-1,1
446 415 m 1,43,-1
 145 128 l 1,44,45
 167 93 167 93 199.5 76 c 128,-1,46
 232 59 232 59 278 59 c 0,47,48
 331 59 331 59 371 90 c 128,-1,49
 411 121 411 121 433.5 179 c 128,-1,50
 456 237 456 237 456 316 c 0,51,42
 456 374 456 374 446 415 c 1,43,-1
EndSplineSet
Validated: 513
EndChar

StartChar: aak-olchiki
Encoding: 7264 7264 8
Width: 521
Flags: W
LayerCount: 2
Fore
SplineSet
368 481 m 128,-1,1
 424 446 424 446 455 388.5 c 128,-1,2
 486 331 486 331 486 261 c 256,3,4
 486 191 486 191 455 133.5 c 128,-1,5
 424 76 424 76 368 41 c 128,-1,6
 312 6 312 6 242 0 c 1,7,-1
 67 147 l 1,8,-1
 67 639 l 1,9,-1
 139 639 l 1,10,-1
 139 432 l 1,11,-1
 242 522 l 1,12,0
 312 516 312 516 368 481 c 128,-1,1
371 140 m 128,-1,14
 413 192 413 192 413 261 c 0,15,16
 413 331 413 331 370.5 382.5 c 128,-1,17
 328 434 328 434 256 443 c 1,18,-1
 139 341 l 1,19,-1
 139 180 l 1,20,-1
 261 79 l 1,21,13
 329 88 329 88 371 140 c 128,-1,14
EndSplineSet
Validated: 513
EndChar

StartChar: aaj-olchiki
Encoding: 7265 7265 9
Width: 601
Flags: W
LayerCount: 2
Fore
SplineSet
492.5 531 m 128,-1,1
 556 453 556 453 556 320 c 0,2,3
 556 223 556 223 521 153 c 128,-1,4
 486 83 486 83 428.5 44.5 c 128,-1,5
 371 6 371 6 302 -1 c 1,6,-1
 139 213 l 1,7,-1
 139 2 l 1,8,-1
 67 2 l 1,9,-1
 67 638 l 1,10,-1
 139 638 l 1,11,-1
 139 326 l 1,12,-1
 332 78 l 1,13,14
 395 95 395 95 439 155.5 c 128,-1,15
 483 216 483 216 483 320 c 0,16,17
 483 428 483 428 433.5 488 c 128,-1,18
 384 548 384 548 295 571 c 1,19,-1
 321 639 l 1,20,0
 429 609 429 609 492.5 531 c 128,-1,1
EndSplineSet
Validated: 513
EndChar

StartChar: aam-olchiki
Encoding: 7266 7266 10
Width: 601
Flags: W
LayerCount: 2
Fore
SplineSet
534 2 m 1,0,-1
 462 2 l 1,1,-1
 462 213 l 1,2,-1
 299 -1 l 1,3,4
 230 6 230 6 172.5 44.5 c 128,-1,5
 115 83 115 83 80 153 c 128,-1,6
 45 223 45 223 45 320 c 0,7,8
 45 453 45 453 108.5 531 c 128,-1,9
 172 609 172 609 280 639 c 1,10,-1
 306 571 l 1,11,12
 217 548 217 548 167.5 488 c 128,-1,13
 118 428 118 428 118 320 c 0,14,15
 118 216 118 216 162 155.5 c 128,-1,16
 206 95 206 95 269 78 c 1,17,-1
 462 326 l 1,18,-1
 462 638 l 1,19,-1
 534 638 l 1,20,-1
 534 2 l 1,0,-1
EndSplineSet
Validated: 513
EndChar

StartChar: aaw-olchiki
Encoding: 7267 7267 11
Width: 625
Flags: W
LayerCount: 2
Fore
SplineSet
559.5 496 m 128,-1,1
 580 421 580 421 580 329 c 0,2,3
 580 226 580 226 548.5 148.5 c 128,-1,4
 517 71 517 71 455.5 28 c 128,-1,5
 394 -15 394 -15 307 -15 c 0,6,7
 229 -15 229 -15 170 22 c 128,-1,8
 111 59 111 59 77 129.5 c 128,-1,9
 43 200 43 200 40 297 c 1,10,-1
 56 312 l 1,11,-1
 88 303 l 2,12,13
 117 295 117 295 137 291 c 128,-1,14
 157 287 157 287 186 287 c 0,15,16
 225 287 225 287 251.5 306.5 c 128,-1,17
 278 326 278 326 291 356 c 128,-1,18
 304 386 304 386 304 418 c 0,19,20
 304 496 304 496 280 532 c 128,-1,21
 256 568 256 568 209 568 c 0,22,23
 175 568 175 568 150.5 546.5 c 128,-1,24
 126 525 126 525 105 481 c 1,25,-1
 41 514 l 1,26,27
 64 576 64 576 110 609 c 128,-1,28
 156 642 156 642 206 642 c 0,29,30
 296 642 296 642 337 579.5 c 128,-1,31
 378 517 378 517 378 417 c 0,32,33
 378 366 378 366 356 319 c 128,-1,34
 334 272 334 272 291 243 c 128,-1,35
 248 214 248 214 188 214 c 0,36,37
 157 214 157 214 122 221 c 1,38,39
 137 145 137 145 184.5 102 c 128,-1,40
 232 59 232 59 305 59 c 0,41,42
 372 57 372 57 417 92.5 c 128,-1,43
 462 128 462 128 484 189 c 128,-1,44
 506 250 506 250 506 323 c 0,45,46
 506 412 506 412 485 483 c 128,-1,47
 464 554 464 554 431 606 c 1,48,-1
 501 640 l 1,49,0
 539 571 539 571 559.5 496 c 128,-1,1
EndSplineSet
Validated: 545
EndChar

StartChar: li-olchiki
Encoding: 7268 7268 12
Width: 571
Flags: W
LayerCount: 2
Fore
SplineSet
484 0 m 1,0,-1
 412 0 l 1,1,-1
 412 347 l 1,2,-1
 415 396 l 1,3,-1
 390 360 l 1,4,-1
 106 -5 l 1,5,-1
 49 37 l 1,6,-1
 431 529 l 1,7,8
 367 576 367 576 288 576 c 0,9,10
 226 576 226 576 181 550 c 128,-1,11
 136 524 136 524 91 480 c 1,12,-1
 35 530 l 1,13,14
 84 587 84 587 151 618.5 c 128,-1,15
 218 650 218 650 288 650 c 0,16,17
 359 650 359 650 424.5 621.5 c 128,-1,18
 490 593 490 593 536 541 c 1,19,-1
 484 485 l 1,20,-1
 484 0 l 1,0,-1
EndSplineSet
Validated: 513
EndChar

StartChar: is-olchiki
Encoding: 7269 7269 13
Width: 571
Flags: W
LayerCount: 2
Fore
SplineSet
420 17.5 m 128,-1,1
 353 -14 353 -14 283 -14 c 0,2,3
 212 -14 212 -14 146.5 14.5 c 128,-1,4
 81 43 81 43 35 95 c 1,5,-1
 87 151 l 1,6,-1
 87 636 l 1,7,-1
 159 636 l 1,8,-1
 159 289 l 1,9,-1
 156 240 l 1,10,-1
 181 276 l 1,11,-1
 465 641 l 1,12,-1
 522 599 l 1,13,-1
 140 107 l 1,14,15
 204 60 204 60 283 60 c 0,16,17
 345 60 345 60 390 86 c 128,-1,18
 435 112 435 112 480 156 c 1,19,-1
 536 106 l 1,20,0
 487 49 487 49 420 17.5 c 128,-1,1
EndSplineSet
Validated: 513
EndChar

StartChar: ih-olchiki
Encoding: 7270 7270 14
Width: 684
Flags: W
LayerCount: 2
Fore
SplineSet
601.5 492.5 m 128,-1,1
 639 409 639 409 639 319 c 0,2,3
 639 209 639 209 593 121.5 c 128,-1,4
 547 34 547 34 470 -4 c 1,5,-1
 342 175 l 1,6,-1
 214 -4 l 1,7,8
 137 34 137 34 91 121.5 c 128,-1,9
 45 209 45 209 45 319 c 0,10,11
 45 409 45 409 82.5 492.5 c 128,-1,12
 120 576 120 576 173 631 c 1,13,-1
 230 583 l 1,14,15
 190 541 190 541 154.5 470 c 128,-1,16
 119 399 119 399 119 313 c 0,17,18
 119 250 119 250 139.5 193 c 128,-1,19
 160 136 160 136 198 98 c 1,20,-1
 320 266 l 1,21,-1
 364 266 l 1,22,-1
 486 98 l 1,23,24
 524 136 524 136 544.5 193 c 128,-1,25
 565 250 565 250 565 313 c 0,26,27
 565 399 565 399 529.5 470 c 128,-1,28
 494 541 494 541 454 583 c 1,29,-1
 511 631 l 1,30,0
 564 576 564 576 601.5 492.5 c 128,-1,1
EndSplineSet
Validated: 513
EndChar

StartChar: iny-olchiki
Encoding: 7271 7271 15
Width: 521
Flags: W
LayerCount: 2
Fore
SplineSet
454 0 m 1,0,-1
 382 0 l 1,1,-1
 382 207 l 1,2,-1
 279 117 l 1,3,4
 209 123 209 123 153 158 c 128,-1,5
 97 193 97 193 66 250.5 c 128,-1,6
 35 308 35 308 35 378 c 256,7,8
 35 448 35 448 66 505.5 c 128,-1,9
 97 563 97 563 153 598 c 128,-1,10
 209 633 209 633 279 639 c 1,11,-1
 382 549 l 1,12,-1
 382 636 l 1,13,-1
 454 636 l 1,14,-1
 454 0 l 1,0,-1
382 458 m 1,15,-1
 265 560 l 1,16,17
 193 551 193 551 150.5 499.5 c 128,-1,18
 108 448 108 448 108 378 c 256,19,20
 108 308 108 308 150.5 256.5 c 128,-1,21
 193 205 193 205 265 196 c 1,22,-1
 382 298 l 1,23,-1
 382 458 l 1,15,-1
EndSplineSet
Validated: 513
EndChar

StartChar: ir-olchiki
Encoding: 7272 7272 16
Width: 541
Flags: W
LayerCount: 2
Fore
SplineSet
342 602.5 m 128,-1,1
 414 555 414 555 455 472 c 128,-1,2
 496 389 496 389 496 286 c 0,3,4
 496 170 496 170 431 99.5 c 128,-1,5
 366 29 366 29 271 -1 c 1,6,-1
 164 151 l 1,7,-1
 69 -6 l 1,8,-1
 10 28 l 1,9,-1
 129 226 l 1,10,-1
 195 226 l 1,11,-1
 291 88 l 1,12,13
 336 114 336 114 361 136 c 1,14,-1
 102 452 l 1,15,-1
 155 496 l 1,16,-1
 404 196 l 1,17,18
 419 232 419 232 419 286 c 0,19,20
 419 367 419 367 389.5 433 c 128,-1,21
 360 499 360 499 306 537.5 c 128,-1,22
 252 576 252 576 181 576 c 0,23,24
 131 576 131 576 89 556 c 1,25,-1
 58 623 l 1,26,27
 115 650 115 650 181 650 c 0,28,0
 270 650 270 650 342 602.5 c 128,-1,1
EndSplineSet
Validated: 513
EndChar

StartChar: lu-olchiki
Encoding: 7273 7273 17
Width: 501
Flags: W
LayerCount: 2
Fore
SplineSet
348 481 m 128,-1,1
 404 446 404 446 435 388.5 c 128,-1,2
 466 331 466 331 466 261 c 256,3,4
 466 191 466 191 435 133.5 c 128,-1,5
 404 76 404 76 348 41 c 128,-1,6
 292 6 292 6 222 0 c 1,7,-1
 40 159 l 1,8,-1
 88 207 l 1,9,-1
 236 79 l 1,10,11
 308 88 308 88 350.5 139.5 c 128,-1,12
 393 191 393 191 393 261 c 256,13,14
 393 331 393 331 350.5 382.5 c 128,-1,15
 308 434 308 434 236 443 c 1,16,-1
 119 341 l 1,17,-1
 47 374 l 1,18,-1
 47 639 l 1,19,-1
 119 639 l 1,20,-1
 119 470 l 1,21,-1
 117 430 l 1,22,-1
 222 522 l 1,23,0
 292 516 292 516 348 481 c 128,-1,1
EndSplineSet
Validated: 513
EndChar

StartChar: uc-olchiki
Encoding: 7274 7274 18
Width: 606
Flags: W
LayerCount: 2
Fore
SplineSet
303 -14 m 256,1,2
 129 -14 129 -14 20 107 c 1,3,-1
 138 248 l 1,4,-1
 138 476 l 2,5,6
 138 527 138 527 162.5 563.5 c 128,-1,7
 187 600 187 600 225 618 c 128,-1,8
 263 636 263 636 303 636 c 256,9,10
 343 636 343 636 381 618 c 128,-1,11
 419 600 419 600 444 563.5 c 128,-1,12
 469 527 469 527 469 476 c 2,13,-1
 469 247 l 1,14,-1
 586 107 l 1,15,0
 477 -14 477 -14 303 -14 c 256,1,2
231 543.5 m 128,-1,17
 203 517 203 517 203 466 c 2,18,-1
 203 253 l 1,19,20
 252 223 252 223 303 223 c 256,21,22
 354 223 354 223 404 254 c 1,23,-1
 404 466 l 2,24,25
 404 515 404 515 375.5 542.5 c 128,-1,26
 347 570 347 570 303 570 c 256,27,16
 259 570 259 570 231 543.5 c 128,-1,17
191.5 69.5 m 128,-1,29
 236 53 236 53 303 53 c 256,30,31
 370 53 370 53 414.5 69.5 c 128,-1,32
 459 86 459 86 494 115 c 1,33,-1
 429 191 l 1,34,35
 400 175 400 175 366.5 166 c 128,-1,36
 333 157 333 157 303 157 c 256,37,38
 273 157 273 157 239.5 166 c 128,-1,39
 206 175 206 175 176 191 c 1,40,-1
 112 115 l 1,41,28
 147 86 147 86 191.5 69.5 c 128,-1,29
EndSplineSet
Validated: 513
EndChar

StartChar: ud-olchiki
Encoding: 7275 7275 19
Width: 548
Flags: W
LayerCount: 2
Fore
SplineSet
528 441 m 0,1,2
 528 393 528 393 491 360 c 128,-1,3
 454 327 454 327 393 307 c 1,4,-1
 368 372 l 1,5,6
 411 387 411 387 431.5 402 c 128,-1,7
 452 417 452 417 452 447 c 0,8,9
 452 469 452 469 425 494 c 128,-1,10
 398 519 398 519 356 540.5 c 128,-1,11
 314 562 314 562 274 572 c 1,12,13
 234 562 234 562 192 540.5 c 128,-1,14
 150 519 150 519 123 494 c 128,-1,15
 96 469 96 469 96 447 c 0,16,17
 96 417 96 417 116.5 402 c 128,-1,18
 137 387 137 387 180 372 c 1,19,-1
 155 307 l 1,20,21
 94 327 94 327 57 360 c 128,-1,22
 20 393 20 393 20 441 c 0,23,24
 20 562 20 562 274 647 c 1,25,0
 528 562 528 562 528 441 c 0,1,2
355.5 88 m 128,-1,27
 383 118 383 118 404 186 c 1,28,-1
 472 158 l 1,29,30
 440 61 440 61 391.5 23.5 c 128,-1,31
 343 -14 343 -14 275 -14 c 0,32,33
 131 -14 131 -14 87 197 c 1,34,-1
 134 251 l 1,35,-1
 241 217 l 1,36,-1
 241 479 l 1,37,-1
 311 479 l 1,38,-1
 311 141 l 1,39,-1
 291 127 l 1,40,-1
 168 169 l 1,41,42
 199 58 199 58 275 58 c 0,43,26
 328 58 328 58 355.5 88 c 128,-1,27
EndSplineSet
Validated: 513
EndChar

StartChar: unn-olchiki
Encoding: 7276 7276 20
Width: 684
Flags: W
LayerCount: 2
Fore
SplineSet
529.5 157 m 128,-1,1
 565 228 565 228 565 314 c 0,2,3
 565 377 565 377 544.5 434 c 128,-1,4
 524 491 524 491 486 529 c 1,5,-1
 364 361 l 1,6,-1
 320 361 l 1,7,-1
 198 529 l 1,8,9
 160 491 160 491 139.5 434 c 128,-1,10
 119 377 119 377 119 314 c 0,11,12
 119 228 119 228 154.5 157 c 128,-1,13
 190 86 190 86 230 44 c 1,14,-1
 173 -4 l 1,15,16
 120 51 120 51 82.5 134.5 c 128,-1,17
 45 218 45 218 45 308 c 0,18,19
 45 418 45 418 91 505.5 c 128,-1,20
 137 593 137 593 214 631 c 1,21,-1
 342 452 l 1,22,-1
 470 631 l 1,23,24
 547 593 547 593 593 505.5 c 128,-1,25
 639 418 639 418 639 308 c 0,26,27
 639 218 639 218 601.5 134.5 c 128,-1,28
 564 51 564 51 511 -4 c 1,29,-1
 454 44 l 1,30,0
 494 86 494 86 529.5 157 c 128,-1,1
EndSplineSet
Validated: 513
EndChar

StartChar: uy-olchiki
Encoding: 7277 7277 21
Width: 620
Flags: W
LayerCount: 2
Fore
SplineSet
65.5 131 m 128,-1,1
 45 206 45 206 45 298 c 0,2,3
 45 401 45 401 76.5 478.5 c 128,-1,4
 108 556 108 556 169.5 599 c 128,-1,5
 231 642 231 642 318 642 c 0,6,7
 396 642 396 642 455 605 c 128,-1,8
 514 568 514 568 548 497.5 c 128,-1,9
 582 427 582 427 585 330 c 1,10,-1
 569 315 l 1,11,-1
 537 324 l 2,12,13
 508 332 508 332 488 336 c 128,-1,14
 468 340 468 340 439 340 c 0,15,16
 400 340 400 340 373.5 320.5 c 128,-1,17
 347 301 347 301 334 271 c 128,-1,18
 321 241 321 241 321 209 c 0,19,20
 321 131 321 131 345 95 c 128,-1,21
 369 59 369 59 416 59 c 0,22,23
 450 59 450 59 474.5 80.5 c 128,-1,24
 499 102 499 102 520 146 c 1,25,-1
 584 113 l 1,26,27
 561 51 561 51 515 18 c 128,-1,28
 469 -15 469 -15 419 -15 c 0,29,30
 329 -15 329 -15 288 47.5 c 128,-1,31
 247 110 247 110 247 210 c 0,32,33
 247 261 247 261 269 308 c 128,-1,34
 291 355 291 355 334 384 c 128,-1,35
 377 413 377 413 437 413 c 0,36,37
 468 413 468 413 503 406 c 1,38,39
 488 482 488 482 440.5 525 c 128,-1,40
 393 568 393 568 320 568 c 0,41,42
 253 570 253 570 208 534.5 c 128,-1,43
 163 499 163 499 141 438 c 128,-1,44
 119 377 119 377 119 304 c 0,45,46
 119 215 119 215 140 144 c 128,-1,47
 161 73 161 73 194 21 c 1,48,-1
 124 -13 l 1,49,0
 86 56 86 56 65.5 131 c 128,-1,1
EndSplineSet
Validated: 545
EndChar

StartChar: le-olchiki
Encoding: 7278 7278 22
Width: 568
Flags: W
LayerCount: 2
Fore
SplineSet
362 563 m 128,-1,1
 328 573 328 573 291 573 c 0,2,3
 229 573 229 573 183.5 546.5 c 128,-1,4
 138 520 138 520 93 476 c 1,5,-1
 38 525 l 1,6,7
 87 582 87 582 154.5 614 c 128,-1,8
 222 646 222 646 291 646 c 256,9,10
 360 646 360 646 413.5 624 c 128,-1,11
 467 602 467 602 528 549 c 1,12,-1
 145 100 l 1,13,14
 201 61 201 61 280 61 c 0,15,16
 345 61 345 61 389 86.5 c 128,-1,17
 433 112 433 112 478 156 c 1,18,-1
 533 107 l 1,19,20
 484 49 484 49 417 17.5 c 128,-1,21
 350 -14 350 -14 280 -14 c 256,22,23
 210 -14 210 -14 156.5 7 c 128,-1,24
 103 28 103 28 35 84 c 1,25,-1
 419 537 l 1,26,0
 396 553 396 553 362 563 c 128,-1,1
EndSplineSet
Validated: 513
EndChar

StartChar: ep-olchiki
Encoding: 7279 7279 23
Width: 636
Flags: W
LayerCount: 2
Fore
SplineSet
480.5 18 m 128,-1,1
 403 -14 403 -14 318 -14 c 0,2,3
 235 -14 235 -14 164.5 17.5 c 128,-1,4
 94 49 94 49 45 107 c 1,5,-1
 149 221 l 1,6,-1
 149 461 l 1,7,-1
 151 528 l 1,8,9
 117 508 117 508 85 476 c 1,10,-1
 30 525 l 1,11,12
 78 582 78 582 155.5 614 c 128,-1,13
 233 646 233 646 318 646 c 0,14,15
 401 646 401 646 471.5 614.5 c 128,-1,16
 542 583 542 583 591 525 c 1,17,-1
 487 411 l 1,18,-1
 487 171 l 1,19,-1
 485 104 l 1,20,21
 519 124 519 124 551 156 c 1,22,-1
 606 107 l 1,23,0
 558 50 558 50 480.5 18 c 128,-1,1
318 57 m 0,25,26
 370 57 370 57 418 73 c 1,27,-1
 418 436 l 1,28,-1
 490 517 l 1,29,30
 415 575 415 575 318 575 c 0,31,32
 264 575 264 575 218 559 c 1,33,-1
 218 196 l 1,34,-1
 145 115 l 1,35,24
 220 57 220 57 318 57 c 0,25,26
EndSplineSet
Validated: 513
EndChar

StartChar: edd-olchiki
Encoding: 7280 7280 24
Width: 720
Flags: W
LayerCount: 2
Fore
SplineSet
536.5 600.5 m 128,-1,1
 602 557 602 557 638.5 480 c 128,-1,2
 675 403 675 403 675 305 c 0,3,4
 675 216 675 216 638 137.5 c 128,-1,5
 601 59 601 59 547 3 c 1,6,-1
 490 51 l 1,7,8
 532 95 532 95 566.5 160.5 c 128,-1,9
 601 226 601 226 601 311 c 0,10,11
 601 379 601 379 576 437.5 c 128,-1,12
 551 496 551 496 504.5 532 c 128,-1,13
 458 568 458 568 396 571 c 1,14,-1
 396 -5 l 1,15,16
 364 -10 364 -10 332 -10 c 0,17,18
 249 -10 249 -10 183.5 33.5 c 128,-1,19
 118 77 118 77 81.5 154 c 128,-1,20
 45 231 45 231 45 329 c 0,21,22
 45 418 45 418 82 496.5 c 128,-1,23
 119 575 119 575 173 631 c 1,24,-1
 230 583 l 1,25,26
 188 539 188 539 153.5 473.5 c 128,-1,27
 119 408 119 408 119 323 c 0,28,29
 119 255 119 255 144 196.5 c 128,-1,30
 169 138 169 138 215.5 102 c 128,-1,31
 262 66 262 66 324 63 c 1,32,-1
 324 639 l 1,33,34
 356 644 356 644 388 644 c 0,35,0
 471 644 471 644 536.5 600.5 c 128,-1,1
EndSplineSet
Validated: 513
EndChar

StartChar: en-olchiki
Encoding: 7281 7281 25
Width: 599
Flags: W
LayerCount: 2
Fore
SplineSet
400 86 m 128,-1,1
 445 112 445 112 490 156 c 1,2,-1
 546 106 l 1,3,4
 497 49 497 49 430 17.5 c 128,-1,5
 363 -14 363 -14 293 -14 c 0,6,7
 222 -14 222 -14 156.5 14.5 c 128,-1,8
 91 43 91 43 45 95 c 1,9,-1
 97 151 l 1,10,-1
 97 558 l 1,11,12
 196 648 196 648 312 648 c 0,13,14
 389 648 389 648 456.5 615 c 128,-1,15
 524 582 524 582 574 523 c 1,16,-1
 521 475 l 1,17,18
 489 507 489 507 471 521 c 1,19,-1
 150 107 l 1,20,21
 214 60 214 60 293 60 c 0,22,0
 355 60 355 60 400 86 c 128,-1,1
232.5 562.5 m 128,-1,24
 195 548 195 548 169 522 c 1,25,-1
 169 289 l 1,26,-1
 166 240 l 1,27,-1
 191 276 l 1,28,-1
 411 559 l 1,29,30
 367 577 367 577 314 577 c 0,31,23
 270 577 270 577 232.5 562.5 c 128,-1,24
EndSplineSet
Validated: 513
EndChar

StartChar: err-olchiki
Encoding: 7282 7282 26
Width: 604
Flags: W
LayerCount: 2
Fore
SplineSet
507 76 m 1,0,1
 408 -14 408 -14 292 -14 c 0,2,3
 215 -14 215 -14 147.5 19 c 128,-1,4
 80 52 80 52 30 111 c 1,5,-1
 83 159 l 1,6,7
 115 127 115 127 133 113 c 1,8,-1
 454 527 l 1,9,10
 390 574 390 574 311 574 c 0,11,12
 249 574 249 574 204 548 c 128,-1,13
 159 522 159 522 114 478 c 1,14,-1
 58 528 l 1,15,16
 107 585 107 585 174 616.5 c 128,-1,17
 241 648 241 648 311 648 c 0,18,19
 382 648 382 648 447.5 619.5 c 128,-1,20
 513 591 513 591 559 539 c 1,21,-1
 507 483 l 1,22,-1
 507 76 l 1,0,1
372 72.5 m 128,-1,24
 410 88 410 88 436 114 c 1,25,-1
 445 345 l 1,26,-1
 445 404 l 1,27,-1
 413 358 l 1,28,-1
 193 75 l 1,29,30
 237 57 237 57 290 57 c 0,31,23
 334 57 334 57 372 72.5 c 128,-1,24
EndSplineSet
Validated: 513
EndChar

StartChar: lo-olchiki
Encoding: 7283 7283 27
Width: 651
Flags: W
LayerCount: 2
Fore
SplineSet
463 609.5 m 128,-1,1
 529 569 529 569 567.5 493.5 c 128,-1,2
 606 418 606 418 606 316 c 0,3,4
 606 215 606 215 567.5 140 c 128,-1,5
 529 65 529 65 463 25 c 128,-1,6
 397 -15 397 -15 316 -15 c 0,7,8
 220 -15 220 -15 145.5 44.5 c 128,-1,9
 71 104 71 104 43 208 c 1,10,-1
 113 233 l 1,11,12
 134 151 134 151 188 105 c 128,-1,13
 242 59 242 59 316 59 c 0,14,15
 381 59 381 59 429 88.5 c 128,-1,16
 477 118 477 118 504 174 c 1,17,18
 474 159 474 159 436 159 c 0,19,20
 390 159 390 159 352.5 179 c 128,-1,21
 315 199 315 199 293.5 234.5 c 128,-1,22
 272 270 272 270 272 316 c 256,23,24
 272 362 272 362 293.5 397.5 c 128,-1,25
 315 433 315 433 352.5 453 c 128,-1,26
 390 473 390 473 436 473 c 0,27,28
 470 473 470 473 505 458 c 1,29,30
 478 515 478 515 429.5 545.5 c 128,-1,31
 381 576 381 576 316 576 c 0,32,33
 242 576 242 576 187 529.5 c 128,-1,34
 132 483 132 483 113 402 c 1,35,-1
 40 427 l 1,36,37
 69 531 69 531 144.5 590.5 c 128,-1,38
 220 650 220 650 316 650 c 0,39,0
 397 650 397 650 463 609.5 c 128,-1,1
377 253.5 m 128,-1,41
 403 229 403 229 443 229 c 0,42,43
 485 229 485 229 509.5 254 c 128,-1,44
 534 279 534 279 534 316 c 256,45,46
 534 353 534 353 509 377.5 c 128,-1,47
 484 402 484 402 443 402 c 0,48,49
 403 402 403 402 377 377.5 c 128,-1,50
 351 353 351 353 351 316 c 0,51,40
 351 278 351 278 377 253.5 c 128,-1,41
EndSplineSet
Validated: 513
EndChar

StartChar: ott-olchiki
Encoding: 7284 7284 28
Width: 601
Flags: W
LayerCount: 2
Fore
SplineSet
428.5 593.5 m 128,-1,1
 486 555 486 555 521 485 c 128,-1,2
 556 415 556 415 556 318 c 0,3,4
 556 185 556 185 492.5 107 c 128,-1,5
 429 29 429 29 321 -1 c 1,6,-1
 295 67 l 1,7,8
 384 90 384 90 433.5 150 c 128,-1,9
 483 210 483 210 483 318 c 0,10,11
 483 422 483 422 439 482.5 c 128,-1,12
 395 543 395 543 332 560 c 1,13,-1
 139 312 l 1,14,-1
 139 0 l 1,15,-1
 67 0 l 1,16,-1
 67 636 l 1,17,-1
 139 636 l 1,18,-1
 139 425 l 1,19,-1
 302 639 l 1,20,0
 371 632 371 632 428.5 593.5 c 128,-1,1
EndSplineSet
Validated: 513
EndChar

StartChar: ob-olchiki
Encoding: 7285 7285 29
Width: 720
Flags: W
LayerCount: 2
Fore
SplineSet
638 496.5 m 128,-1,1
 675 418 675 418 675 329 c 0,2,3
 675 231 675 231 638.5 154 c 128,-1,4
 602 77 602 77 536.5 33.5 c 128,-1,5
 471 -10 471 -10 388 -10 c 0,6,7
 356 -10 356 -10 324 -5 c 1,8,-1
 324 571 l 1,9,10
 262 568 262 568 215.5 532 c 128,-1,11
 169 496 169 496 144 437.5 c 128,-1,12
 119 379 119 379 119 311 c 0,13,14
 119 226 119 226 153.5 160.5 c 128,-1,15
 188 95 188 95 230 51 c 1,16,-1
 173 3 l 1,17,18
 119 59 119 59 82 137.5 c 128,-1,19
 45 216 45 216 45 305 c 0,20,21
 45 403 45 403 81.5 480 c 128,-1,22
 118 557 118 557 183.5 600.5 c 128,-1,23
 249 644 249 644 332 644 c 0,24,25
 364 644 364 644 396 639 c 1,26,-1
 396 63 l 1,27,28
 458 66 458 66 504.5 102 c 128,-1,29
 551 138 551 138 576 196.5 c 128,-1,30
 601 255 601 255 601 323 c 0,31,32
 601 408 601 408 566.5 473.5 c 128,-1,33
 532 539 532 539 490 583 c 1,34,-1
 547 631 l 1,35,0
 601 575 601 575 638 496.5 c 128,-1,1
EndSplineSet
Validated: 513
EndChar

StartChar: ov-olchiki
Encoding: 7286 7286 30
Width: 604
Flags: W
LayerCount: 2
Fore
SplineSet
545 383 m 2,0,1
 545 252 545 252 512 162.5 c 128,-1,2
 479 73 479 73 420.5 29 c 128,-1,3
 362 -15 362 -15 285 -15 c 0,4,5
 169 -15 169 -15 104.5 66.5 c 128,-1,6
 40 148 40 148 35 297 c 1,7,-1
 51 312 l 1,8,-1
 83 303 l 2,9,10
 112 295 112 295 132 291 c 128,-1,11
 152 287 152 287 181 287 c 0,12,13
 241 287 241 287 270 326.5 c 128,-1,14
 299 366 299 366 299 418 c 0,15,16
 299 496 299 496 275 532 c 128,-1,17
 251 568 251 568 203 568 c 0,18,19
 169 568 169 568 145 546.5 c 128,-1,20
 121 525 121 525 100 481 c 1,21,-1
 37 513 l 1,22,23
 60 576 60 576 105 609 c 128,-1,24
 150 642 150 642 200 642 c 0,25,26
 290 642 290 642 331.5 580.5 c 128,-1,27
 373 519 373 519 373 426 c 0,28,29
 373 370 373 370 352 321.5 c 128,-1,30
 331 273 331 273 288.5 243.5 c 128,-1,31
 246 214 246 214 183 214 c 0,32,33
 152 214 152 214 117 221 c 1,34,35
 133 143 133 143 172.5 101 c 128,-1,36
 212 59 212 59 283 59 c 0,37,38
 337 56 337 56 379.5 91.5 c 128,-1,39
 422 127 422 127 446.5 200.5 c 128,-1,40
 471 274 471 274 471 380 c 0,41,42
 471 406 471 406 470 419 c 1,43,-1
 544 419 l 1,44,-1
 545 383 l 2,0,1
467.5 494 m 128,-1,46
 453 509 453 509 453 532 c 0,47,48
 453 556 453 556 467.5 570.5 c 128,-1,49
 482 585 482 585 506 585 c 256,50,51
 530 585 530 585 544.5 570.5 c 128,-1,52
 559 556 559 556 559 532 c 0,53,54
 559 509 559 509 544.5 494 c 128,-1,55
 530 479 530 479 506 479 c 256,56,45
 482 479 482 479 467.5 494 c 128,-1,46
EndSplineSet
Validated: 545
EndChar

StartChar: oh-olchiki
Encoding: 7287 7287 31
Width: 684
Flags: W
LayerCount: 2
Fore
SplineSet
503.5 596.5 m 128,-1,1
 570 545 570 545 604.5 468 c 128,-1,2
 639 391 639 391 639 319 c 0,3,4
 639 209 639 209 593 121.5 c 128,-1,5
 547 34 547 34 470 -4 c 1,6,-1
 342 165 l 1,7,-1
 214 -4 l 1,8,9
 137 34 137 34 91 121.5 c 128,-1,10
 45 209 45 209 45 319 c 0,11,12
 45 381 45 381 64 443 c 1,13,-1
 135 418 l 1,14,15
 119 367 119 367 119 313 c 0,16,17
 119 250 119 250 139.5 193 c 128,-1,18
 160 136 160 136 198 98 c 1,19,-1
 320 256 l 1,20,-1
 364 256 l 1,21,-1
 486 98 l 1,22,23
 516 128 516 128 535 170.5 c 128,-1,24
 554 213 554 213 561 262 c 1,25,26
 171 309 171 309 171 509 c 0,27,28
 171 574 171 574 214.5 611 c 128,-1,29
 258 648 258 648 345 648 c 0,30,0
 437 648 437 648 503.5 596.5 c 128,-1,1
564 334 m 1,32,33
 560 401 560 401 529.5 457 c 128,-1,34
 499 513 499 513 450 545.5 c 128,-1,35
 401 578 401 578 341 578 c 0,36,37
 289 578 289 578 267.5 559.5 c 128,-1,38
 246 541 246 541 246 505 c 0,39,31
 246 372 246 372 564 334 c 1,32,33
EndSplineSet
Validated: 513
EndChar

StartChar: mu_ttuddag-olchiki
Encoding: 7288 7288 32
Width: 130
Flags: W
LayerCount: 2
Fore
SplineSet
25 622 m 128,-1,1
 40 637 40 637 65 637 c 256,2,3
 90 637 90 637 105 622 c 128,-1,4
 120 607 120 607 120 579 c 0,5,6
 120 552 120 552 104.5 536.5 c 128,-1,7
 89 521 89 521 65 521 c 256,8,9
 41 521 41 521 25.5 536.5 c 128,-1,10
 10 552 10 552 10 579 c 0,11,0
 10 607 10 607 25 622 c 128,-1,1
EndSplineSet
Validated: 513
EndChar

StartChar: gaahlaa_ttuddag-olchiki
Encoding: 7289 7289 33
Width: 130
Flags: W
LayerCount: 2
Fore
SplineSet
25 109 m 128,-1,1
 40 124 40 124 65 124 c 256,2,3
 90 124 90 124 105 109 c 128,-1,4
 120 94 120 94 120 66 c 0,5,6
 120 39 120 39 104.5 23.5 c 128,-1,7
 89 8 89 8 65 8 c 256,8,9
 41 8 41 8 25.5 23.5 c 128,-1,10
 10 39 10 39 10 66 c 0,11,0
 10 94 10 94 25 109 c 128,-1,1
EndSplineSet
Validated: 513
EndChar

StartChar: mu_gaahlaa_ttuddag-olchiki
Encoding: 7290 7290 34
Width: 130
Flags: W
LayerCount: 2
Fore
SplineSet
25 622 m 128,-1,1
 40 637 40 637 65 637 c 256,2,3
 90 637 90 637 105 622 c 128,-1,4
 120 607 120 607 120 579 c 0,5,6
 120 552 120 552 104.5 536.5 c 128,-1,7
 89 521 89 521 65 521 c 256,8,9
 41 521 41 521 25.5 536.5 c 128,-1,10
 10 552 10 552 10 579 c 0,11,0
 10 607 10 607 25 622 c 128,-1,1
25 109 m 128,-1,13
 40 124 40 124 65 124 c 256,14,15
 90 124 90 124 105 109 c 128,-1,16
 120 94 120 94 120 66 c 0,17,18
 120 39 120 39 104.5 23.5 c 128,-1,19
 89 8 89 8 65 8 c 256,20,21
 41 8 41 8 25.5 23.5 c 128,-1,22
 10 39 10 39 10 66 c 0,23,12
 10 94 10 94 25 109 c 128,-1,13
EndSplineSet
Validated: 513
EndChar

StartChar: relaa-olchiki
Encoding: 7292 7292 35
Width: 352
Flags: W
LayerCount: 2
Fore
SplineSet
312 381 m 1,0,-1
 40 381 l 1,1,-1
 40 453 l 1,2,-1
 312 453 l 1,3,-1
 312 381 l 1,0,-1
EndSplineSet
Validated: 513
EndChar

StartChar: phaarkaa-olchiki
Encoding: 7291 7291 36
Width: 530
Flags: W
LayerCount: 2
Fore
SplineSet
112 392 m 128,-1,1
 90 380 90 380 66 359 c 1,2,-1
 30 416 l 1,3,4
 61 441 61 441 91.5 457 c 128,-1,5
 122 473 122 473 162 473 c 0,6,7
 192 473 192 473 219.5 464 c 128,-1,8
 247 455 247 455 280 439 c 0,9,10
 312 425 312 425 331.5 418.5 c 128,-1,11
 351 412 351 412 370 412 c 0,12,13
 396 412 396 412 417.5 424 c 128,-1,14
 439 436 439 436 464 457 c 1,15,-1
 500 400 l 1,16,17
 469 375 469 375 438.5 359 c 128,-1,18
 408 343 408 343 368 343 c 0,19,20
 340 343 340 343 315 351 c 128,-1,21
 290 359 290 359 257 375 c 0,22,23
 226 390 226 390 204.5 397 c 128,-1,24
 183 404 183 404 160 404 c 0,25,0
 134 404 134 404 112 392 c 128,-1,1
EndSplineSet
Validated: 513
EndChar

StartChar: mucaad-olchiki
Encoding: 7294 7294 37
Width: 392
Flags: W
LayerCount: 2
Fore
SplineSet
192 480 m 1,0,-1
 192 120 l 1,1,-1
 120 120 l 1,2,-1
 120 480 l 1,3,-1
 192 480 l 1,0,-1
EndSplineSet
Validated: 513
EndChar

StartChar: double_mucaad-olchiki
Encoding: 65537 -1 38
Width: 552
Flags: W
LayerCount: 2
Fore
SplineSet
192 480 m 1,0,-1
 192 120 l 1,1,-1
 120 120 l 1,2,-1
 120 480 l 1,3,-1
 192 480 l 1,0,-1
352 480 m 1,4,-1
 352 120 l 1,5,-1
 280 120 l 1,6,-1
 280 480 l 1,7,-1
 352 480 l 1,4,-1
EndSplineSet
Validated: 513
EndChar

StartChar: ahad-olchiki
Encoding: 7293 7293 39
Width: 493
Flags: W
LayerCount: 2
Fore
SplineSet
354.5 634 m 128,-1,1
 402 593 402 593 425 524 c 128,-1,2
 448 455 448 455 448 372 c 0,3,4
 448 282 448 282 412 200.5 c 128,-1,5
 376 119 376 119 310.5 66 c 128,-1,6
 245 13 245 13 161 4 c 1,7,-1
 35 251 l 1,8,-1
 102 285 l 1,9,-1
 203 91 l 1,10,11
 293 128 293 128 337 212 c 1,12,13
 218 281 218 281 153.5 360 c 128,-1,14
 89 439 89 439 88 523 c 0,15,16
 88 561 88 561 104.5 595.5 c 128,-1,17
 121 630 121 630 154.5 652.5 c 128,-1,18
 188 675 188 675 237 675 c 0,19,0
 307 675 307 675 354.5 634 c 128,-1,1
222 394.5 m 128,-1,21
 281 332 281 332 364 282 c 1,22,23
 375 329 375 329 375 378 c 0,24,25
 375 480 375 480 339.5 542 c 128,-1,26
 304 604 304 604 240 604 c 0,27,28
 201 604 201 604 182 578 c 128,-1,29
 163 552 163 552 163 521 c 0,30,20
 163 457 163 457 222 394.5 c 128,-1,21
EndSplineSet
Validated: 513
EndChar

StartChar: zero-olchiki
Encoding: 7248 7248 40
Width: 600
Flags: W
LayerCount: 2
Fore
SplineSet
78.5 493.5 m 128,-1,1
 112 569 112 569 170.5 609.5 c 128,-1,2
 229 650 229 650 300 650 c 256,3,4
 371 650 371 650 429 609.5 c 128,-1,5
 487 569 487 569 521 493.5 c 128,-1,6
 555 418 555 418 555 316 c 0,7,8
 555 215 555 215 521 140 c 128,-1,9
 487 65 487 65 429 25 c 128,-1,10
 371 -15 371 -15 300 -15 c 256,11,12
 229 -15 229 -15 170.5 25 c 128,-1,13
 112 65 112 65 78.5 140 c 128,-1,14
 45 215 45 215 45 316 c 0,15,0
 45 418 45 418 78.5 493.5 c 128,-1,1
455.5 454.5 m 128,-1,17
 433 513 433 513 393 544.5 c 128,-1,18
 353 576 353 576 300 576 c 256,19,20
 247 576 247 576 206.5 544.5 c 128,-1,21
 166 513 166 513 144 454.5 c 128,-1,22
 122 396 122 396 122 316 c 0,23,24
 122 196 122 196 170.5 127.5 c 128,-1,25
 219 59 219 59 300 59 c 0,26,27
 353 59 353 59 393 90 c 128,-1,28
 433 121 433 121 455.5 179 c 128,-1,29
 478 237 478 237 478 316 c 0,30,16
 478 396 478 396 455.5 454.5 c 128,-1,17
EndSplineSet
Validated: 513
EndChar

StartChar: one-olchiki
Encoding: 7249 7249 41
Width: 428
Flags: W
LayerCount: 2
Fore
SplineSet
110 437 m 0,1,2
 110 356 110 356 136.5 276 c 128,-1,3
 163 196 163 196 226 134.5 c 128,-1,4
 289 73 289 73 391 55 c 1,5,-1
 370 -20 l 1,6,7
 262 -1 262 -1 186 67.5 c 128,-1,8
 110 136 110 136 72 231 c 128,-1,9
 34 326 34 326 33 423 c 0,10,11
 33 492 33 492 42 539 c 128,-1,12
 51 586 51 586 71 643 c 1,13,-1
 326 434 l 1,14,-1
 326 636 l 1,15,-1
 398 636 l 1,16,-1
 398 340 l 1,17,-1
 351 319 l 1,18,-1
 116 511 l 1,19,0
 110 478 110 478 110 437 c 0,1,2
EndSplineSet
Validated: 513
EndChar

StartChar: two-olchiki
Encoding: 7250 7250 42
Width: 458
Flags: W
LayerCount: 2
Fore
SplineSet
335 13 m 128,-1,1
 276 -15 276 -15 211 -15 c 0,2,3
 161 -15 161 -15 121 8 c 128,-1,4
 81 31 81 31 58 71.5 c 128,-1,5
 35 112 35 112 35 163 c 0,6,7
 35 226 35 226 70 270.5 c 128,-1,8
 105 315 105 315 170 355 c 2,9,-1
 205 377 l 1,10,11
 160 407 160 407 132 441.5 c 128,-1,12
 104 476 104 476 104 525 c 0,13,14
 104 580 104 580 142 615 c 128,-1,15
 180 650 180 650 240 650 c 0,16,17
 301 650 301 650 339 613.5 c 128,-1,18
 377 577 377 577 377 515 c 0,19,20
 377 447 377 447 338 398.5 c 128,-1,21
 299 350 299 350 225 303 c 0,22,23
 169 267 169 267 141 236.5 c 128,-1,24
 113 206 113 206 113 162 c 0,25,26
 113 115 113 115 142 87.5 c 128,-1,27
 171 60 171 60 212 60 c 0,28,29
 304 60 304 60 384 144 c 1,30,-1
 438 92 l 1,31,0
 394 41 394 41 335 13 c 128,-1,1
195 561 m 128,-1,33
 179 547 179 547 179 526 c 0,34,35
 179 497 179 497 206.5 470 c 128,-1,36
 234 443 234 443 268 428 c 1,37,38
 300 465 300 465 300 515 c 0,39,40
 300 545 300 545 282 560 c 128,-1,41
 264 575 264 575 238 575 c 0,42,32
 211 575 211 575 195 561 c 128,-1,33
EndSplineSet
Validated: 513
EndChar

StartChar: three-olchiki
Encoding: 7251 7251 43
Width: 483
Flags: W
LayerCount: 2
Fore
SplineSet
133 289.5 m 128,-1,1
 110 267 110 267 110 242 c 0,2,3
 110 193 110 193 168 155 c 128,-1,4
 226 117 226 117 291.5 96 c 128,-1,5
 357 75 357 75 435 55 c 1,6,-1
 403 -15 l 1,7,-1
 375 -7 l 2,8,9
 283 20 283 20 213 47.5 c 128,-1,10
 143 75 143 75 86.5 124 c 128,-1,11
 30 173 30 173 30 242 c 0,12,13
 30 281 30 281 59 314.5 c 128,-1,14
 88 348 88 348 142 389 c 1,15,16
 106 417 106 417 87.5 452 c 128,-1,17
 69 487 69 487 69 534 c 0,18,19
 69 583 69 583 106.5 616.5 c 128,-1,20
 144 650 144 650 202 650 c 0,21,22
 261 650 261 650 294.5 616 c 128,-1,23
 328 582 328 582 328 527 c 0,24,25
 328 487 328 487 311 456.5 c 128,-1,26
 294 426 294 426 264 399 c 1,27,28
 296 384 296 384 381 353 c 1,29,-1
 381 636 l 1,30,-1
 453 636 l 1,31,-1
 453 290 l 1,32,-1
 406 269 l 1,33,34
 370 283 370 283 352 289 c 0,35,36
 244 331 244 331 206 350 c 1,37,0
 156 312 156 312 133 289.5 c 128,-1,1
159 561.5 m 128,-1,39
 144 548 144 548 144 526 c 0,40,41
 144 474 144 474 201 434 c 1,42,43
 227 455 227 455 241 474.5 c 128,-1,44
 255 494 255 494 255 515 c 0,45,46
 255 546 255 546 240 560.5 c 128,-1,47
 225 575 225 575 200 575 c 0,48,38
 174 575 174 575 159 561.5 c 128,-1,39
EndSplineSet
Validated: 513
EndChar

StartChar: four-olchiki
Encoding: 7252 7252 44
Width: 463
Flags: W
LayerCount: 2
Fore
SplineSet
421 235.5 m 128,-1,1
 433 202 433 202 433 152 c 0,2,3
 433 104 433 104 408 66 c 128,-1,4
 383 28 383 28 341 6.5 c 128,-1,5
 299 -15 299 -15 251 -15 c 0,6,7
 150 -15 150 -15 97.5 61.5 c 128,-1,8
 45 138 45 138 45 262 c 0,9,10
 45 371 45 371 95.5 451 c 128,-1,11
 146 531 146 531 219.5 579 c 128,-1,12
 293 627 293 627 370 648 c 1,13,-1
 396 580 l 1,14,15
 333 563 333 563 273 527.5 c 128,-1,16
 213 492 213 492 173 434 c 1,17,18
 189 339 189 339 213 280.5 c 128,-1,19
 237 222 237 222 274 222 c 0,20,21
 297 222 297 222 315.5 243 c 128,-1,22
 334 264 334 264 358 304 c 1,23,-1
 381 308 l 1,24,0
 409 269 409 269 421 235.5 c 128,-1,1
329 87 m 128,-1,26
 362 115 362 115 362 166 c 0,27,28
 362 178 362 178 361 187 c 1,29,30
 339 167 339 167 319 156 c 128,-1,31
 299 145 299 145 267 145 c 0,32,33
 218 145 218 145 181.5 193 c 128,-1,34
 145 241 145 241 126 325 c 1,35,36
 118 288 118 288 118 251 c 0,37,38
 118 175 118 175 149.5 117 c 128,-1,39
 181 59 181 59 250 59 c 0,40,25
 296 59 296 59 329 87 c 128,-1,26
EndSplineSet
Validated: 513
EndChar

StartChar: five-olchiki
Encoding: 7253 7253 45
Width: 555
Flags: W
LayerCount: 2
Fore
SplineSet
156 453 m 128,-1,1
 120 365 120 365 120 273 c 0,2,3
 120 175 120 175 162 117 c 128,-1,4
 204 59 204 59 290 59 c 0,5,6
 343 59 343 59 383.5 86.5 c 128,-1,7
 424 114 424 114 439 164 c 1,8,9
 399 156 399 156 377 156 c 0,10,11
 294 156 294 156 252 198 c 128,-1,12
 210 240 210 240 210 311 c 0,13,14
 210 404 210 404 279.5 453 c 128,-1,15
 349 502 349 502 451 513 c 1,16,-1
 471 440 l 1,17,18
 417 430 417 430 380.5 419.5 c 128,-1,19
 344 409 344 409 314 383 c 128,-1,20
 284 357 284 357 284 312 c 0,21,22
 284 227 284 227 379 227 c 0,23,24
 418 227 418 227 443.5 233 c 128,-1,25
 469 239 469 239 509 252 c 1,26,-1
 525 237 l 1,27,28
 522 154 522 154 490 97.5 c 128,-1,29
 458 41 458 41 405.5 13 c 128,-1,30
 353 -15 353 -15 288 -15 c 0,31,32
 171 -15 171 -15 108 64 c 128,-1,33
 45 143 45 143 45 279 c 0,34,35
 45 371 45 371 80 461 c 128,-1,36
 115 551 115 551 167 640 c 1,37,-1
 236 606 l 1,38,0
 192 541 192 541 156 453 c 128,-1,1
EndSplineSet
Validated: 513
EndChar

StartChar: six-olchiki
Encoding: 7254 7254 46
Width: 528
Flags: W
LayerCount: 2
Fore
SplineSet
243 170.5 m 128,-1,1
 309 82 309 82 453 55 c 1,2,-1
 432 -20 l 1,3,4
 323 -1 323 -1 247 58.5 c 128,-1,5
 171 118 171 118 133 201.5 c 128,-1,6
 95 285 95 285 95 378 c 0,7,8
 95 430 95 430 113 482 c 1,9,-1
 5 620 l 1,10,-1
 68 665 l 1,11,-1
 155 556 l 1,12,13
 189 600 189 600 236.5 625 c 128,-1,14
 284 650 284 650 333 650 c 256,15,16
 382 650 382 650 418.5 627.5 c 128,-1,17
 455 605 455 605 474 569.5 c 128,-1,18
 493 534 493 534 493 498 c 0,19,20
 493 453 493 453 474.5 416 c 128,-1,21
 456 379 456 379 421.5 357.5 c 128,-1,22
 387 336 387 336 343 336 c 0,23,24
 258 336 258 336 179 413 c 1,25,26
 176 395 176 395 176 374 c 0,27,0
 177 259 177 259 243 170.5 c 128,-1,1
267.5 547.5 m 128,-1,29
 233 528 233 528 209 492 c 1,30,31
 243 456 243 456 273 437 c 128,-1,32
 303 418 303 418 333 418 c 0,33,34
 374 418 374 418 393 438 c 128,-1,35
 412 458 412 458 412 493 c 0,36,37
 412 526 412 526 390 546.5 c 128,-1,38
 368 567 368 567 334 567 c 0,39,28
 302 567 302 567 267.5 547.5 c 128,-1,29
EndSplineSet
Validated: 513
EndChar

StartChar: seven-olchiki
Encoding: 7255 7255 47
Width: 490
Flags: W
LayerCount: 2
Fore
SplineSet
357 13 m 128,-1,1
 298 -15 298 -15 233 -15 c 0,2,3
 143 -15 143 -15 90 34.5 c 128,-1,4
 37 84 37 84 37 163 c 0,5,6
 37 224 37 224 77.5 266.5 c 128,-1,7
 118 309 118 309 192 355 c 2,8,-1
 215 369 l 2,9,10
 279 408 279 408 310 437 c 128,-1,11
 341 466 341 466 341 505 c 0,12,13
 341 542 341 542 321.5 559 c 128,-1,14
 302 576 302 576 274 576 c 0,15,16
 247 576 247 576 224.5 562 c 128,-1,17
 202 548 202 548 180 525 c 1,18,-1
 235 467 l 1,19,-1
 181 421 l 1,20,-1
 20 590 l 1,21,-1
 73 635 l 1,22,-1
 127 579 l 1,23,24
 162 615 162 615 197.5 632.5 c 128,-1,25
 233 650 233 650 279 650 c 0,26,27
 315 650 315 650 347 633 c 128,-1,28
 379 616 379 616 399 583 c 128,-1,29
 419 550 419 550 419 505 c 0,30,31
 419 459 419 459 395.5 424 c 128,-1,32
 372 389 372 389 341 366 c 128,-1,33
 310 343 310 343 247 303 c 0,34,35
 239 298 239 298 198 272.5 c 128,-1,36
 157 247 157 247 136 219.5 c 128,-1,37
 115 192 115 192 115 162 c 0,38,39
 115 113 115 113 147 86.5 c 128,-1,40
 179 60 179 60 234 60 c 0,41,42
 326 60 326 60 406 144 c 1,43,-1
 460 92 l 1,44,0
 416 41 416 41 357 13 c 128,-1,1
EndSplineSet
Validated: 513
EndChar

StartChar: eight-olchiki
Encoding: 7256 7256 48
Width: 626
Flags: W
LayerCount: 2
Fore
SplineSet
441.5 80.5 m 128,-1,1
 483 102 483 102 508 156 c 1,2,-1
 576 124 l 1,3,4
 547 52 547 52 484 18.5 c 128,-1,5
 421 -15 421 -15 326 -15 c 0,6,7
 239 -15 239 -15 184 1 c 128,-1,8
 129 17 129 17 97 67 c 128,-1,9
 65 117 65 117 65 216 c 2,10,-1
 65 461 l 2,11,12
 65 562 65 562 101 606 c 128,-1,13
 137 650 137 650 194 650 c 0,14,15
 233 650 233 650 263.5 629 c 128,-1,16
 294 608 294 608 323 570 c 1,17,18
 370 612 370 612 400.5 631 c 128,-1,19
 431 650 431 650 467 650 c 0,20,21
 521 650 521 650 556 612.5 c 128,-1,22
 591 575 591 575 591 510 c 0,23,24
 591 430 591 430 555.5 395 c 128,-1,25
 520 360 520 360 467 360 c 0,26,27
 418 360 418 360 381 388 c 128,-1,28
 344 416 344 416 310 465 c 1,29,-1
 138 301 l 1,30,-1
 138 216 l 2,31,32
 138 144 138 144 159.5 110 c 128,-1,33
 181 76 181 76 218.5 67.5 c 128,-1,34
 256 59 256 59 326 59 c 0,35,0
 400 59 400 59 441.5 80.5 c 128,-1,1
503.5 560.5 m 128,-1,37
 488 577 488 577 460 577 c 0,38,39
 440 577 440 577 419 560 c 128,-1,40
 398 543 398 543 361 508 c 1,41,42
 388 471 388 471 411.5 451 c 128,-1,43
 435 431 435 431 464 431 c 256,44,45
 493 431 493 431 506 453 c 128,-1,46
 519 475 519 475 519 509 c 0,47,36
 519 544 519 544 503.5 560.5 c 128,-1,37
138 455 m 2,49,-1
 138 396 l 1,50,-1
 273 522 l 1,51,52
 254 550 254 550 239 563 c 128,-1,53
 224 576 224 576 199 576 c 0,54,48
 138 576 138 576 138 455 c 2,49,-1
EndSplineSet
Validated: 513
EndChar

StartChar: nine-olchiki
Encoding: 7257 7257 49
Width: 569
Flags: W
LayerCount: 2
Fore
SplineSet
499 321.5 m 128,-1,1
 539 281 539 281 539 211 c 0,2,3
 539 151 539 151 515.5 99.5 c 128,-1,4
 492 48 492 48 440 16.5 c 128,-1,5
 388 -15 388 -15 309 -15 c 0,6,7
 239 -15 239 -15 178.5 27 c 128,-1,8
 118 69 118 69 81.5 145.5 c 128,-1,9
 45 222 45 222 45 320 c 0,10,11
 45 453 45 453 108.5 531 c 128,-1,12
 172 609 172 609 280 639 c 1,13,-1
 306 571 l 1,14,15
 217 548 217 548 168 488 c 128,-1,16
 119 428 119 428 119 320 c 0,17,18
 119 243 119 243 144.5 184 c 128,-1,19
 170 125 170 125 216 92 c 128,-1,20
 262 59 262 59 321 59 c 0,21,22
 387 59 387 59 424 94 c 1,23,24
 360 103 360 103 315.5 142.5 c 128,-1,25
 271 182 271 182 271 240 c 0,26,27
 271 292 271 292 308.5 327 c 128,-1,28
 346 362 346 362 401 362 c 0,29,0
 459 362 459 362 499 321.5 c 128,-1,1
378 180.5 m 128,-1,31
 413 158 413 158 456 155 c 1,32,33
 462 180 462 180 462 210 c 0,34,35
 462 249 462 249 444 268.5 c 128,-1,36
 426 288 426 288 401 288 c 0,37,38
 378 288 378 288 360.5 274.5 c 128,-1,39
 343 261 343 261 343 238 c 0,40,30
 343 203 343 203 378 180.5 c 128,-1,31
EndSplineSet
Validated: 513
EndChar
